<?xml version="1.0" encoding="utf-8"?>
<!-- Generator: Adobe Illustrator 22.1.0, SVG Export Plug-In . SVG Version: 6.00 Build 0)  -->
<svg version="1.1" id="Capa_1" xmlns="http://www.w3.org/2000/svg" xmlns:xlink="http://www.w3.org/1999/xlink" x="0px" y="0px"
	 viewBox="0 0 100 100" style="enable-background:new 0 0 100 100;" xml:space="preserve">
<style type="text/css">
	.st0{fill:#043B56;}
</style>
<g>
	<path class="st0" d="M40.7,49.9c2.5,2.2,4.8,4.1,7.1,6.2c1.5,1.4,2.9,1.5,4.5,0c2.3-2.1,4.6-4,7.1-6.2C67.5,59,75.6,68,83.8,77.2
		c-1.7,1.7-3.8,1.7-5.8,1.7c-11.2,0-22.4,0-33.5,0c-7.4,0-14.8,0.1-22.2,0c-1.9,0-3.8-0.6-5.7-0.9c-0.1-0.3-0.1-0.5-0.2-0.7
		C24.4,68.2,32.5,59.1,40.7,49.9"/>
	<path class="st0" d="M16.9,21.9c1.6-0.3,3.1-0.8,4.7-0.8c18.9-0.1,37.9-0.1,56.8,0c1.5,0,3.1,0.5,4.6,0.8c0,0.2,0,0.4,0.1,0.6
		c-11,9.6-21.9,19.2-33.1,29c-11.1-9.7-22.2-19.4-33.2-29L16.9,21.9z"/>
	<path class="st0" d="M12.3,73.4c-0.3-1.5-0.8-2.9-0.8-4.3c-0.1-12.7-0.1-25.3,0-38c0-1.7,0.7-3.4,1.1-5.7
		c8.4,7.3,16.3,14.2,24.4,21.3c-8.1,9.1-16.1,18-24,26.9C12.8,73.5,12.6,73.5,12.3,73.4"/>
	<path class="st0" d="M63,46.7c8.1-7.1,15.9-13.9,24.3-21.3c0.5,2.1,1.1,3.6,1.1,5.1c0.1,13,0.1,25.9,0,38.9c0,1.3-0.5,2.7-0.9,4.6
		C79.1,64.7,71.2,55.8,63,46.7"/>
</g>
</svg>
