<?xml version="1.0" encoding="utf-8"?>
<!-- Generator: Adobe Illustrator 22.1.0, SVG Export Plug-In . SVG Version: 6.00 Build 0)  -->
<svg version="1.1" id="Capa_1" xmlns="http://www.w3.org/2000/svg" xmlns:xlink="http://www.w3.org/1999/xlink" x="0px" y="0px"
	 viewBox="0 0 100 100" style="enable-background:new 0 0 100 100;" xml:space="preserve">
<style type="text/css">
	.st0{fill:#043B56;}
</style>
<g>
	<path class="st0" d="M32.6,28.6c3.2-7.8,6.1-9.7,14.3-9.7c2.1,0,4.1,0,6.2,0c8.3,0,11.1,1.8,14.4,9.7c4.1,0,8.3,0,12.5,0
		c5.9,0,8,2.1,8,8.1c0,3.7,0.1,7.3,0,11c-0.1,4.5-2.3,6.9-6.7,7c-8.1,0.1-16.2,0-24.5,0c-1.1-3.6-2.9-6.4-7.1-6.3
		c-3.7,0.1-5.5,2.7-6.4,6.2c-8.5,0-17,0.2-25.4-0.1c-3.8-0.1-5.7-2.6-5.8-6.5c-0.1-4.1-0.1-8.3,0-12.4c0.1-4.4,2.4-6.8,6.8-6.9
		C23.4,28.5,27.9,28.6,32.6,28.6 M61.1,28.5c-0.9-2.7-2.7-3.8-5-3.9c-4-0.2-8.1-0.2-12.1,0c-2.3,0.1-4.3,1.2-4.9,3.9H61.1z"/>
	<path class="st0" d="M86.2,59.1c0,5.4,0.2,11.3-0.1,17.2c-0.1,2.6-2,4.2-4.7,4.6c-1.2,0.2-2.4,0.3-3.5,0.3c-18.6,0-37.2,0-55.7,0
		c-6.8,0-8.6-1.8-8.6-8.6c0-4.6,0-9.2,0-13.5c9.3,0,18.4,0,27.4,0c1.7,0,2.8,0.3,3.9,1.9c2.6,3.8,7.9,3.8,10.5-0.1
		c1-1.5,2-1.8,3.6-1.8c6,0.1,12.1,0,18.1,0H86.2z"/>
	<path class="st0" d="M53.7,56.3c0,2.8-1.4,4.4-3.7,4.3c-2.4,0-3.7-1.8-3.6-4.8c0.1-2.7,1.6-4.3,3.9-4.2
		C52.5,51.9,53.7,53.5,53.7,56.3"/>
</g>
</svg>
