<?xml version="1.0" encoding="utf-8"?>
<!-- Generator: Adobe Illustrator 22.1.0, SVG Export Plug-In . SVG Version: 6.00 Build 0)  -->
<svg version="1.1" id="Capa_1" xmlns="http://www.w3.org/2000/svg" xmlns:xlink="http://www.w3.org/1999/xlink" x="0px" y="0px"
	 viewBox="0 0 100 100" style="enable-background:new 0 0 100 100;" xml:space="preserve">
<style type="text/css">
	.st0{fill:#043B56;}
</style>
<path class="st0" d="M11,22.1c-0.2,3.7,0.7,6.6,2.6,9.6c3.6,5.7,6.8,11.7,10,17.6c0.4,0.8,0.1,2-0.4,3.1c-2.8-3.5-7.4-5.6-7-10.8
	c0-0.6-0.8-1.4-1.3-1.8c-1.6-1.3-3.3-2.5-4.9-3.8c2.5-2,2.7-2.8,0.6-4.9c-3.3-3.3-4.2-7.6-5.8-11.8c3.8-0.5,7.1-0.6,10.1,1.6
	c3.7,2.8,7.9,4.3,12.6,3.5c1.1-0.2,2.2-0.7,3.2-1.2c1.2-0.6,4.7,0.1,5.9,1.5c2.4,2.7,4.7,5.4,7.1,8.2c1.9-1.1,2.7-4.1,5.5-2.7
	c1,0.5,2.1,1.1,2.7,1.9c1.4,1.9,2.5,4,3.6,6c1.2,2.3,2.4,4.4,5.5,4.5c0.5,0,1.2,1.2,1.3,1.9c0.2,0.8,0,1.8-0.4,2.6
	c-3.2,7.5,1.9,13.1,4.7,19c0.6,1.3,3.5,2.3,5.2,2.2c3.1-0.1,6.2-1,9.1-2c0.9-0.3,1.5-2.1,1.9-3.3c1.8-5.7,6-8,12.6-6.6
	c-0.9,3.6-0.5,7.6-3.9,10.5c-1.5,1.3-2.9,2.1-5,2c-1,0-2.9,0.4-3,0.8c-0.1,1.2,0.5,2.4,0.8,3.7c0.1,0.3,0.3,0.6,0.8,1.4
	c-4.4-0.6-5.5,2-5.2,6.2c-2-1.9-3.3-3.1-4.6-4.4C73,74.7,71,74.2,68.5,76c-2.2,1.5-4,1.4-6.4,0.3c-7-3.4-14.1-6.4-21.2-9.6
	c-3.6-1.6-4.4-3.9-4.1-7.8c0.2-2-0.9-4.3-1.9-6.2c-0.9-1.6-2.7-2.7-3.8-4.1c-2-2.6-5.4-4-5.8-8c-0.1-1.2-1.7-2.3-2.7-3.3
	c-2.9-2.7-5.1-5.9-5.9-9.8C15.9,24.5,13.8,23.1,11,22.1"/>
</svg>
