<?xml version="1.0" encoding="utf-8"?>
<!-- Generator: Adobe Illustrator 22.1.0, SVG Export Plug-In . SVG Version: 6.00 Build 0)  -->
<svg version="1.1" id="Capa_1" xmlns="http://www.w3.org/2000/svg" xmlns:xlink="http://www.w3.org/1999/xlink" x="0px" y="0px"
	 viewBox="0 0 100 100" style="enable-background:new 0 0 100 100;" xml:space="preserve">
<style type="text/css">
	.st0{fill:#043B56;}
</style>
<g>
	<path class="st0" d="M61.1,28.4c-0.8-0.1-1.5-0.1-2.2-0.2c-0.1-1.1-0.2-2-0.3-3.2H26.1c0,0.8-0.1,1.6-0.1,2.3c0,14.5,0,29,0,43.5
		c0,1.9,0.4,2.5,2.4,2.5c9.4-0.1,18.7-0.1,28.1,0c1.6,0,2.4-0.3,2.2-2.1c-0.2-1.7,1-1.5,2.4-1.5c0,1.8,0,3.5,0,5.3
		c0,2.3,0,4.5,0,6.8c0,3-1.1,4.1-4.1,4.1c-9.8,0-19.7,0-29.5,0c-2.9,0-4-1.2-4-4.2c0-18.4,0-36.7,0-55.1c0-3,0-6,0-9
		c0-2.5,1.1-3.8,3.6-3.8c10.2-0.1,20.3,0,30.5,0c1.8,0,3.3,0.9,3.4,2.7C61.2,20.6,61.1,24.4,61.1,28.4 M43,76.6h-0.9
		c-0.6,0.9-1.5,1.7-1.7,2.6c-0.3,1.4,0.8,2.2,2.1,2.3c1.2,0.1,2.7-1.2,2.3-2.3C44.5,78.3,43.6,77.5,43,76.6 M39.6,18.6l-0.5,0.6
		c0.4,0.6,0.8,1.6,1.3,1.7c1.4,0.2,2.9,0.1,4.4,0c0.4,0,0.9-0.7,0.9-1.1c0-0.4-0.6-1-1-1C43,18.5,41.3,18.6,39.6,18.6"/>
	<path class="st0" d="M65.9,64.6c-0.3-0.2-1-0.5-1.6-0.9C63,62.8,62,63,61.4,64.4c-0.7,1.5-1.8,2-3.4,1.8c-1.5-0.2-2.8-0.5-3.2-2.4
		c-0.3-1.6-1.3-2.2-2.8-1.2c-1.5,1-2.6,0.4-3.7-0.6c-1.1-1-1.9-2-1.3-3.6c0.6-1.7,0.1-2.7-1.8-2.8c-2-0.1-2.1-1.7-2.5-3.1
		c-0.4-1.3-0.1-2.3,1-3.1c1.9-1.4,2-1.9,0.3-3.5c-1.2-1.1-0.8-2.2-0.4-3.4c0.5-1.3,1.2-2.3,2.8-2.5c2.6-0.2,2.7-0.3,2.4-3
		c-0.2-2,1.5-2.3,2.7-3c0.6-0.4,1.8-0.4,2.4-0.1c2.4,1.4,2.6,1.5,4-1c0.9-1.6,2.3-1,3.5-0.9c1.1,0,2,0.2,2.5,1.5
		c0.9,2.6,1.3,2.8,3.7,1.6c1.4-0.7,2.2,0.1,3.2,0.9c1,0.8,1.9,1.6,1.4,3.2c-0.8,2.4-0.6,2.7,1.8,3.3c1.7,0.4,2.1,1.6,2.4,3
		c0.3,1.3,0.1,2.3-1.2,3.1c-1.6,1-1.7,2.3-0.4,3.6c1.1,1.1,1.1,2.2,0.5,3.6c-0.6,1.4-1.4,2.3-3.1,2.2c-1.8-0.1-2.3,0.8-2.1,2.5
		C70.4,62.6,68.3,64.6,65.9,64.6 M59.5,40.5c-4.8,0-8.6,3.9-8.6,8.6c0,4.8,3.9,8.8,8.7,8.7c4.8,0,8.7-4,8.6-8.8
		C68.1,44.2,64.3,40.4,59.5,40.5"/>
</g>
</svg>
