<?xml version="1.0" encoding="utf-8"?>
<!-- Generator: Adobe Illustrator 22.1.0, SVG Export Plug-In . SVG Version: 6.00 Build 0)  -->
<svg version="1.1" id="Capa_1" xmlns="http://www.w3.org/2000/svg" xmlns:xlink="http://www.w3.org/1999/xlink" x="0px" y="0px"
	 viewBox="0 0 100 100" style="enable-background:new 0 0 100 100;" xml:space="preserve">
<style type="text/css">
	.st0{fill:#043B56;}
</style>
<g>
	<path class="st0" d="M16.1,82.7c-0.8-4.4,0.4-6.1,4.6-6.4c1.2-0.1,1.3-0.7,1.3-1.6c0-3.4-0.1-6.9,0.1-10.3c0-0.8,0.7-1.8,1.3-2.2
		c2.6-1.4,5.4-1.8,8.2-0.2c1,0.6,2.1,1,3.1,1.5c2.1,1,4.2,1,6.4,0.1c0.7-0.3,1.5-0.5,2.2-0.9c4.2-2.1,8.4-2.3,12.6,0.2
		c3.7,2.1,7.6,1.8,11.4-0.2c2.9-1.6,5.9-2.3,9.1-0.7c1.2,0.6,1.8,1.2,1.7,2.6c-0.1,3.4,0,6.7,0,10.1c0,0.9,0.1,1.5,1.3,1.6
		c4.3,0.3,5.3,1.7,4.7,6.4H16.1z"/>
	<path class="st0" d="M34.5,45.6c3.9,0,7.6,0,11.2-0.1c0.4,0,1.1-0.8,1.1-1.3c0.1-2.1,0.1-4.3,0-6.4c0-1.1,0.3-1.7,1.5-1.6
		c1.5,0.1,2.9,0,4.6,0c0,2.6,0.1,5,0,7.4c-0.1,1.5,0.3,2.1,1.9,2c3.4-0.1,6.9,0,10.6,0v-6.4c2,0,3.7-0.1,5.4,0.1
		c0.3,0,0.8,0.9,0.9,1.4c0.2,1.6-0.3,3.7,0.6,4.6c0.7,0.8,2.9,0.3,4.5,0.4c2.8,0.1,4.2,1.5,4.2,4.3c0,3.5,0,7,0,10.9
		c-1-0.5-1.7-0.7-2.3-1.1c-1.1-0.7-2-1.6-3.1-2.3c-2.3-1.5-4.9-1.8-7.1-0.1c-4.7,3.5-9,3.6-13.9,0.2c-2.8-2-6.2-1.7-9.3-0.4
		c-1,0.4-2,0.9-2.9,1.6c-2.8,2-5.5,2.1-8.2-0.1c-0.4-0.3-0.9-0.6-1.3-0.8c-4.3-2.5-7.7-2-11.2,1.6c-0.6,0.6-1.4,0.9-2.6,1.6
		c0-4.5-0.1-8.3,0-12.1c0.1-1.9,1.7-3.1,3.7-3.3c1.7-0.1,3.9,0.5,4.9-0.4c0.9-0.8,0.4-3.1,0.5-4.8c0-0.1,0-0.3,0-0.4
		c1.5-1.7,3.4-0.4,5-0.7c1.1-0.2,1.2,0.7,1.2,1.5C34.5,42.4,34.5,43.9,34.5,45.6"/>
	<path class="st0" d="M52.4,33.7c1.2-3,0.4-5.1-2.7-7.4c-0.4,2.6-5,4-1.6,7.6c-4.4-1.3-5.9-5.8-3.3-9.2c0.8-1,1.8-1.9,2.5-3
		c0.8-1.3,1.4-2.8,2.2-4.4c0.4,0.3,1.1,0.7,1.5,1.3c1.6,2.1,3.2,4.2,4.5,6.5C57.5,28.6,56.3,31.8,52.4,33.7"/>
	<path class="st0" d="M33.7,36.2c1.3-2.9-0.7-4.5-2.4-6.6c-0.4,2.5-4.1,3.6-1.9,6.7c-3-0.7-4.6-4.1-3.2-6.6c0.5-1,1.3-1.7,2-2.6
		c1-1.5,2-3.1,3.1-4.8c0,0,0.5,0.2,0.8,0.5c1.6,2.3,3.4,4.4,4.7,6.9C38,32.2,36.7,35,33.7,36.2"/>
	<path class="st0" d="M68,29.5c-0.3,2.8-4.2,3.8-1.7,7c-3.7-1.4-4.9-4.9-2.9-7.7c0.8-1,1.8-1.9,2.4-3c0.7-1.1,1.2-2.4,1.9-3.8
		c0.5,0.4,1.2,0.8,1.6,1.4c1.4,1.9,2.8,3.9,3.9,6c1.4,2.7,0.3,5.3-2.4,6.7c-0.2-1.1-0.1-2.3-0.6-3.3C69.9,31.7,69,30.8,68,29.5"/>
</g>
</svg>
