<?xml version="1.0" encoding="utf-8"?>
<!-- Generator: Adobe Illustrator 22.1.0, SVG Export Plug-In . SVG Version: 6.00 Build 0)  -->
<svg version="1.1" id="Capa_1" xmlns="http://www.w3.org/2000/svg" xmlns:xlink="http://www.w3.org/1999/xlink" x="0px" y="0px"
	 viewBox="0 0 100 100" style="enable-background:new 0 0 100 100;" xml:space="preserve">
<style type="text/css">
	.st0{fill:#043B56;}
</style>
<g>
	<path class="st0" d="M22.5,47.8c-0.1,0.4,0.1,1,0.5,1.3c2,1.8,3.2,3.9,3.4,6.6c0,0.6,0.3,1,0.9,1.3c2.5,1,4.2,2.8,5.3,5.3
		c0.2,0.4,0.8,0.8,1.2,0.8c2.7,0.2,4.9,1.4,6.7,3.4c0.4,0.5,0.9,0.6,1.5,0.5c2.5-0.6,4.8-0.4,7,1c0.7,0.5,1.5,0.5,2.2,0
		c2.1-1.3,4.4-1.7,6.9-1c0.1,0,0.1,0,0.2,0c0.5-0.1,1.1-0.1,1.4-0.5c1.8-2,4-3.2,6.7-3.4c0.6,0,1-0.4,1.3-0.9c1-2.4,2.6-4.2,5.1-5.1
		c0.8-0.3,1.1-0.9,1.2-1.7c0.1-2.5,1.3-4.5,3.2-6.1c0,0,0.1-0.1,0.1-0.1c0.2-0.4,0.5-0.9,0.4-1.3c-0.6-2.7-0.2-5.2,1.2-7.6
		c0.2-0.3,0.2-0.9,0-1.2c-1.4-2.4-1.8-4.9-1.2-7.6c0.1-0.4-0.1-1-0.4-1.3c-1.9-1.8-3.2-3.8-3.3-6.5c0-0.7-0.4-1.2-1.1-1.5
		c-2.1-0.9-3.9-2.2-4.7-4.5c-0.4-1-1.2-1.5-2.3-1.7c-1.4-0.3-3.1-0.2-4.1-1.5c-1.5-2-3.4-2.6-5.9-1.9c-2,0.5-3.4-1-5.1-1.5
		c0-0.1,0-0.2,0.1-0.2h0.2c-0.1-0.1-0.2-0.1-0.3-0.2H49c-0.1,0.1-0.1,0.1-0.2,0.2h0.6c-1.1,0.7-2.3,1.3-3.5,1.8
		c-0.2,0.1-0.5,0.1-0.7,0.1c-0.4,0.1-0.7,0.1-1.1,0.1c-1,0-2-0.2-2.8-0.5c0,0-0.1,0-0.1,0c-0.3,0.1-0.6,0.2-0.8,0.5
		c-1.7,2-3.9,3.1-6.5,3.3c-0.6,0-1.1,0.3-1.3,0.9c-1,2.5-2.8,4.3-5.3,5.2c-0.6,0.2-0.9,0.7-0.9,1.3C26.1,26.2,25,28.3,23,30
		c-0.5,0.5-0.7,1-0.6,1.7c0.7,2.6,0.2,5-1.2,7.2c0,0.1-0.1,0.1-0.1,0.2c0,0.4-0.2,0.9,0,1.2C22.7,42.6,23.1,45.1,22.5,47.8 M50,19.9
		c10.9,0,19.8,8.9,19.8,19.8c0,10.8-8.9,19.7-19.6,19.7c-11.3,0-20.2-8.7-20.2-19.8C30.1,28.7,39,19.9,50,19.9"/>
	<path class="st0" d="M72.9,59.3c-1.3,0.6-2.3,1.2-2.8,2.5c-0.3,0.7-0.8,1.3-1.2,2.1c-0.3,0.7-0.8,1.1-1.6,1.2
		c-2.7,0.2-5,1.2-6.7,3.3c-0.6,0.7-1.3,0.9-2.3,0.7c-2-0.3-4.1-0.7-6,0.6c-1.4,1-2.9,1.2-4.4,0.2c0,0-0.1,0-0.3,0
		c4.4,6.5,8.8,13,13.3,19.5c0.3-0.4,0.5-0.6,0.7-0.8c2.5-3,5.1-6.1,7.6-9.1c0.5-0.5,1.2-1,1.8-1.2c3.2-1.1,6.5-2.1,9.7-3.1
		c0.8-0.2,1.5-0.5,2.4-0.8C79.7,69.3,76.3,64.4,72.9,59.3"/>
	<path class="st0" d="M45.3,69.8c-0.5-0.9-1.1-1.1-2.1-1c-2.8,0.5-2.9,0.4-5-1.6c-0.9-0.9-1.8-1.8-3.2-1.8c-2.7,0-4.3-1.4-5.2-3.8
		c-0.5-1.2-1.5-1.8-2.8-2.3c-3.4,5-6.8,10-10.2,15.1c0.4,0.2,0.6,0.3,0.8,0.3c3.9,1.2,7.7,2.4,11.6,3.6c0.5,0.2,1,0.5,1.4,0.9
		c1.5,1.8,3,3.6,4.5,5.3c1.3,1.6,2.6,3.1,3.9,4.7c0.2-0.2,0.3-0.3,0.3-0.4c3.1-4.5,6.1-9,9.1-13.5c0.2-0.2,0.1-0.8-0.1-1
		C47.4,72.9,46.3,71.4,45.3,69.8"/>
	<path class="st0" d="M50,55.6c9-0.1,16-7.2,16-16.1c-0.1-8.7-7.4-15.8-16.2-15.7c-8.8,0.1-16,7.4-15.9,16.2
		C34,48.5,41.3,55.6,50,55.6"/>
</g>
</svg>
