<?xml version="1.0" encoding="utf-8"?>
<!-- Generator: Adobe Illustrator 22.1.0, SVG Export Plug-In . SVG Version: 6.00 Build 0)  -->
<svg version="1.1" id="Capa_1" xmlns="http://www.w3.org/2000/svg" xmlns:xlink="http://www.w3.org/1999/xlink" x="0px" y="0px"
	 viewBox="0 0 100 100" style="enable-background:new 0 0 100 100;" xml:space="preserve">
<style type="text/css">
	.st0{fill:#043B56;}
</style>
<path class="st0" d="M37.5,79.5c-5.7-5.7-11.4-11.3-17.1-16.9c1-1.7,2.3-2.8,4.6-1.9c1,0.4,2.1,0.3,3,0.6c3.1,1.1,5.1,0.1,7.1-2.6
	c3.5-4.7,7.4-9.1,11.2-13.7c0.4-0.5,0.8-1.1,1.4-1.8c-8-3.7-15.9-7.3-24-11.1c1.9-1.7,3.7-3.2,5.5-4.7c0.3-0.3,1-0.2,1.6-0.1
	c0.8,0.1,1.7,0.2,2.4,0.5c3.1,0.9,6,1,8.3-2c0.8-1,2.3-1.5,3.6-1.9c2.4-0.8,3.9,0.5,3.3,3c-0.2,1.1-0.8,2-1.3,3.3
	c3.7,0.7,7.3,1.4,10.9,1.9c0.5,0.1,1.1-0.4,1.6-0.7c3.4-2.6,6.7-5.4,10.2-7.9c1.6-1.2,3.5-2.2,5.5-2.8c2.9-0.9,5,1.3,4.1,4.2
	c-0.6,1.9-1.7,3.8-2.9,5.5c-2.5,3.4-5.2,6.7-7.8,10c-0.4,0.6-0.8,1.5-0.7,2.2c0.5,3.3,1.2,6.7,1.8,10.2c1.1-0.4,2.1-0.9,3.1-1.2
	C75.4,51,77,52.5,76,55c-0.8,2-2.2,3.8-3.6,5.5c-0.8,1-1.2,1.7-0.9,2.9c0.2,0.7,0.1,1.4,0.4,2c2,4.8-0.8,7.7-4.2,10.7
	c-3.6-7.9-7.2-15.7-11-23.9c-1.6,1.3-3.1,2.6-4.6,3.8c-4.2,3.4-8.3,6.9-12.5,10.3c-1.2,1-1.8,1.9-1.3,3.5c0.5,1.7,0.5,3.5,1,5.1
	C40,77,39.3,78.4,37.5,79.5"/>
</svg>
