<?xml version="1.0" encoding="utf-8"?>
<!-- Generator: Adobe Illustrator 22.1.0, SVG Export Plug-In . SVG Version: 6.00 Build 0)  -->
<svg version="1.1" id="Capa_1" xmlns="http://www.w3.org/2000/svg" xmlns:xlink="http://www.w3.org/1999/xlink" x="0px" y="0px"
	 viewBox="0 0 100 100" style="enable-background:new 0 0 100 100;" xml:space="preserve">
<style type="text/css">
	.st0{fill:#043B56;}
</style>
<g>
	<path class="st0" d="M29.2,52.2c1.2,1.4,2.1,2.5,3.1,3.5c0.3,0.3,1,0.2,1.6,0.3c0-0.6,0.1-1.3-0.2-1.6c-1.1-1.1-2.4-2.1-3.7-3.3
		c1.1-1.5,1.9-2.5,3.2-4.3c1,1.3,1.7,2.4,2.7,3.4c0.3,0.3,1.1,0.2,1.7,0.3c-0.1-0.6-0.1-1.3-0.4-1.7c-0.9-1-2-1.8-3.1-2.8
		c1.1-1.2,1.8-2.1,3-3.4c1,1.2,1.8,2.3,2.7,3.2c0.5,0.4,1.3,0.4,2,0.6c-0.2-0.6-0.2-1.4-0.6-1.9c-0.9-1-2-1.8-3.1-2.7
		c1.2-1.2,2-2,3.4-3.4c0.9,1.2,1.6,2.4,2.6,3.3c0.4,0.4,1.2,0.4,1.9,0.5c-0.1-0.6-0.1-1.4-0.5-1.9c-0.8-1-1.8-1.8-3-2.8
		c1.3-1.1,2.4-2,3.9-3.2c1,1.2,1.8,2.3,2.8,3.3c0.4,0.3,1.2,0.2,1.8,0.3c-0.1-0.6-0.1-1.3-0.5-1.7c-0.8-0.9-1.8-1.7-3-2.7
		c1.3-0.9,2.3-1.7,3.3-2.3c0.3-0.2,1,0,1.4,0.3c0.7,0.6,1.3,1.4,2,1.9c0.5,0.3,1.2,0.3,1.8,0.4c-0.1-0.6,0-1.3-0.4-1.7
		c-0.6-0.9-1.4-1.6-2.4-2.6c1.5-0.9,2.9-1.7,4.4-2.4c0.3-0.2,1.1,0.1,1.4,0.5c6.9,6.8,13.7,13.7,20.5,20.5c0.9,0.9,0.5,1.7,0.2,2.5
		c-5.2,12.3-13.4,21.9-25.5,27.8c-4.9,2.3-4.9,2.3-8.6-1.4c-6.1-6.1-12.1-12.2-18.2-18.3c-0.9-0.9-1.1-1.6-0.4-2.7
		C27.6,55,28.1,53.9,29.2,52.2"/>
	<path class="st0" d="M28.3,49.5c-0.5-0.7-0.9-1.4-1.4-1.9c-0.3-0.3-1-0.1-1.5-0.2c0,0.5-0.2,1.3,0,1.4c2.7,1.8,1.3,3.5,0.1,5.3
		c-0.3,0.5-0.6,1-1.2,1.9c-1.6-1.7-3-3.1-4.3-4.7c-0.3-0.4-0.3-1.4-0.1-2c4.7-12.6,13.2-21.8,25.3-27.5c5.5-2.6,5.5-2.6,9.8,1.8
		c0.4,0.4,0.8,0.9,1.4,1.5c-1.5,0.9-2.8,1.8-4.2,2.5c-0.3,0.2-1-0.1-1.4-0.3c-0.7-0.6-1.3-1.4-2-1.9c-0.3-0.2-1-0.1-1.5-0.1
		c0,0.5-0.1,1.1,0.1,1.5c0.6,0.8,1.4,1.5,2.3,2.5c-1.3,0.9-2.4,1.7-3.9,2.8c-0.6-0.7-1.2-1.6-1.9-2.2c-0.4-0.3-1-0.3-1.6-0.4
		c0.1,0.6-0.1,1.3,0.3,1.7c0.5,0.6,1.2,1,2.1,1.7c-1.5,1.2-2.5,2.1-3.6,3c-0.2,0.2-0.4,0.4-0.7,0.5c-0.4-0.7-0.7-1.6-1.3-2.1
		c-0.5-0.4-1.3-0.4-2-0.5c0.2,0.6,0.2,1.3,0.6,1.8c0.4,0.6,1.1,0.9,1.9,1.4c-1.2,1.2-2.1,2-3,2.9c-0.7-0.7-1.2-1.3-1.9-1.8
		c-0.4-0.3-1-0.2-1.6-0.3c0,0.5-0.1,1.3,0.2,1.6c0.6,0.6,1.4,1.1,2.2,1.6c-1.2,1.3-2,2.2-3.4,3.7c-0.6-0.9-0.9-1.8-1.6-2.5
		c-0.3-0.3-1-0.2-1.6-0.2c0.1,0.5,0,1.2,0.2,1.6C31.3,46.4,31.3,46.4,28.3,49.5"/>
	<path class="st0" d="M62.7,16.8c4.6-0.6,9.7-0.7,14.3,1.8c1.8,1,3.4,2.7,4.4,4.5c2.5,4.6,2.2,9.6,1.9,14.8
		C76.3,30.8,69.4,23.8,62.7,16.8"/>
	<path class="st0" d="M16.8,61.8c7.2,7.3,14.1,14.3,21.1,21.5c-6,0.4-11.9,1-17-3.2c-2.2-1.8-3.1-4.6-3.7-7.3
		C16.4,69.2,16.3,65.7,16.8,61.8"/>
</g>
</svg>
