<?xml version="1.0" encoding="utf-8"?>
<!-- Generator: Adobe Illustrator 22.1.0, SVG Export Plug-In . SVG Version: 6.00 Build 0)  -->
<svg version="1.1" id="Capa_1" xmlns="http://www.w3.org/2000/svg" xmlns:xlink="http://www.w3.org/1999/xlink" x="0px" y="0px"
	 viewBox="0 0 100 100" style="enable-background:new 0 0 100 100;" xml:space="preserve">
<style type="text/css">
	.st0{fill:#043B56;}
</style>
<g>
	<path class="st0" d="M88.4,72.5H11.6v-45h76.8V72.5z M12.8,61H87V38.9H12.8V61z"/>
	<path class="st0" d="M28.1,51.5v6.3h-1.7c-0.3-2.1-0.7-4-0.7-5.9c0-1.5,0.4-3.1,0.6-4.6c0-0.2,0.4-0.4,0.6-0.5
		c0.3,0.4,0.7,0.7,0.9,1.1c0.3,0.8,0.5,1.7,1,3c0.8-1.9,1.2-2.9,1.8-4.4c-0.2-0.2-0.7-0.9-1.5-1.9c1.5-0.4,2.6-0.6,3.9-1
		c0.2-0.4,0.4-1,0.7-1.8c0.3,1,1.3,1.6,4.6,3c-0.2,0.4-0.3,0.8-0.6,1.2c-0.3,0.3-0.7,0.6-0.8,0.6c0.7,1.4,1.3,2.5,2,3.9
		c0.4-0.5,0.9-1.1,1.8-2.3c0.3,1.7,0.7,2.9,0.8,4.1c0.1,1.7,0,3.5,0,5.4h-1.9c-0.2-2.2-0.4-4.2-0.6-6.2c-0.3,0-0.5-0.1-0.8-0.1
		c-0.1,0.9-0.3,1.9-0.3,2.8c-0.1,2.8-1.3,3.9-4.5,3.9c-3.2,0-4.3-1-4.4-3.9c0-0.9-0.2-1.9-0.3-2.8C28.6,51.5,28.4,51.5,28.1,51.5"/>
</g>
</svg>
