<?xml version="1.0" encoding="utf-8"?>
<!-- Generator: Adobe Illustrator 22.1.0, SVG Export Plug-In . SVG Version: 6.00 Build 0)  -->
<svg version="1.1" id="Capa_1" xmlns="http://www.w3.org/2000/svg" xmlns:xlink="http://www.w3.org/1999/xlink" x="0px" y="0px"
	 viewBox="0 0 100 100" style="enable-background:new 0 0 100 100;" xml:space="preserve">
<style type="text/css">
	.st0{fill:#043B56;}
</style>
<path class="st0" d="M18.6,81.5c1.4-5,2.6-9.7,3.9-14.4c0.3-1.1,0.2-2-0.3-3C12.6,45.3,24,22.5,44.8,19c17.5-3,33.9,9.1,36.2,26.8
	C83.4,63,70.9,79,53.6,80.9c-6.1,0.7-11.8-0.4-17.3-3c-0.7-0.3-1.7-0.4-2.5-0.2c-4.6,1.1-9.2,2.4-13.9,3.6
	C19.6,81.3,19.3,81.4,18.6,81.5 M34,42.8c0.4,1.5,0.6,3.1,1.3,4.4c4.5,8.7,11.1,15.1,21,17.3c3.2,0.7,6.2,0.2,8.3-2.5
	c0.9-1.1,1.2-2.9,1.2-4.5c0-0.5-1.4-1.2-2.2-1.7c-1-0.6-2-1-3-1.5c-3-1.4-2.8-1.1-4.3,1c-0.3,0.4-0.8,0.8-1.1,1.3
	c-0.6,0.9-1.4,1.1-2.4,0.6c-3.9-1.7-7.1-4.3-9.5-7.9c-1-1.4-1.2-2.5,0.2-3.7c1.4-1.2,1.8-2.7,0.8-4.5c-0.7-1.2-1.1-2.7-1.7-4
	c-1-2.3-3.7-2.9-5.5-1.1C35.2,38,34.1,40.2,34,42.8"/>
</svg>
