<?xml version="1.0" encoding="utf-8"?>
<!-- Generator: Adobe Illustrator 22.1.0, SVG Export Plug-In . SVG Version: 6.00 Build 0)  -->
<svg version="1.1" id="Capa_1" xmlns="http://www.w3.org/2000/svg" xmlns:xlink="http://www.w3.org/1999/xlink" x="0px" y="0px"
	 viewBox="0 0 100 100" style="enable-background:new 0 0 100 100;" xml:space="preserve">
<style type="text/css">
	.st0{fill:#043B56;}
</style>
<g>
	<path class="st0" d="M61.7,63.5c-8.4,0.8-11.2,5.5-8.3,13.6c-10.3,2.8-24-1.2-31.5-12.8c-7.9-12.2-6.1-27.9,4.1-38
		c10-9.8,26-11.4,37.4-3.9C75,30,78.7,43.5,76.8,51.7c-3.3-1-6.5-2.2-9.8-3c-3.7-0.9-5.3,0.4-5.3,4.2C61.7,56.5,61.7,60,61.7,63.5
		 M34.7,47.4c0.1,7.2,5.6,12.6,12.7,12.5c6.7-0.1,12.3-5.8,12.3-12.3c-0.1-7.1-5.8-12.7-12.9-12.6C40.1,35.1,34.6,40.8,34.7,47.4
		 M22,35c4.1,1.7,8,3.4,11.6,4.9c1.9-2,3.6-3.8,5.4-5.7c-1.9-3.4-4-7-6.1-10.7C27.8,26,24.5,29.9,22,35"/>
	<path class="st0" d="M66,68.3c0-4.3,0-8.3,0-12.3c0-2.9,0.7-3.5,3.6-3c3.5,0.6,6.8,1.6,9.8,3.6c3.9,2.6,4.7,6.1,2.3,10.1
		c-0.8,1.4-1.9,2.6-3.1,3.8c0.1-2.9,1.4-6-1.6-8.1c-1.8-1.3-3.8-1.5-6.2-1.3c0,3.7,0,7.4,0,11c0,1.3,0,2.5-0.1,3.8
		c-0.3,3.9-3.9,6.8-7.7,6.4c-4.1-0.5-6.9-4.1-6.4-8.1c0.5-3.9,4.3-6.7,8.2-6C65,68.1,65.4,68.2,66,68.3"/>
	<path class="st0" d="M49.6,46.8c0,1.4-1,2.4-2.3,2.4c-1.3,0-2.3-0.9-2.4-2.2c-0.1-1.4,0.9-2.4,2.2-2.5
		C48.5,44.5,49.6,45.5,49.6,46.8"/>
</g>
</svg>
