<?xml version="1.0" encoding="utf-8"?>
<!-- Generator: Adobe Illustrator 22.1.0, SVG Export Plug-In . SVG Version: 6.00 Build 0)  -->
<svg version="1.1" id="Capa_1" xmlns="http://www.w3.org/2000/svg" xmlns:xlink="http://www.w3.org/1999/xlink" x="0px" y="0px"
	 viewBox="0 0 100 100" style="enable-background:new 0 0 100 100;" xml:space="preserve">
<style type="text/css">
	.st0{fill:#043B56;}
</style>
<g>
	<path class="st0" d="M84.1,84.1c-4.5-1.4-8.3-2.7-12.2-3.9c-1.2-0.4-2.6-0.6-3.8-0.4c-7.3,1-14,0.1-19.9-4.7
		c-8.2-6.9-8.3-17.9-0.3-24.9c9.5-8.3,25.9-6.8,33.3,3c3.8,5.1,4.3,12.1,0.8,17.3c-1.4,2.2-1.4,4.1-0.6,6.2
		C82.1,78.9,83,81.1,84.1,84.1 M63.5,65.6c1.7-0.2,2.8-1.1,2.8-2.9c0-1.8-1-2.8-2.8-2.8c-1.8,0-2.8,1.1-2.9,2.8
		C60.7,64.4,61.8,65.3,63.5,65.6 M54.9,59.8c-1.8,0.2-2.8,1.1-2.8,2.9c0,1.8,1.1,2.8,2.8,2.8c1.7,0,2.8-1.1,2.8-2.9
		C57.7,60.9,56.6,60,54.9,59.8 M75,62.7c-0.2-1.8-1.1-2.8-2.9-2.8c-1.8,0-2.8,1.1-2.8,2.8c0,1.7,1.1,2.9,2.8,2.8
		C73.9,65.5,74.8,64.4,75,62.7"/>
	<path class="st0" d="M77.3,42.1c-1.9-0.7-3.5-1.3-5.1-2c-0.4-0.2-0.9-0.7-1-1.1c-2.3-9.5-9-14.2-17.8-16.3c-8.7-2-17-0.6-24.2,5
		c-8.9,7-9.7,17.2-2.4,25.7c0.6,0.7,0.9,2,0.8,2.9c-0.4,2.6-1.1,5.1-1.8,8.2c3.5-1.4,6.8-2.8,10.3-4.3c0.1,1.8,0.2,3.5,0.2,5.3
		c0,0.4-0.4,0.8-0.8,1c-2.4,1.6-15.9,6-19,5.5c1.2-3.1,2.3-6.2,3.5-9.3c1.3-3.5,1.2-6.5-0.9-10c-5-8.2-4.4-16.7,1.2-24.5
		C32.1,12,60.3,11.7,72.6,27.9C75.7,32,77.5,36.6,77.3,42.1"/>
</g>
</svg>
