<?xml version="1.0" encoding="utf-8"?>
<!-- Generator: Adobe Illustrator 22.1.0, SVG Export Plug-In . SVG Version: 6.00 Build 0)  -->
<svg version="1.1" id="Capa_1" xmlns="http://www.w3.org/2000/svg" xmlns:xlink="http://www.w3.org/1999/xlink" x="0px" y="0px"
	 viewBox="0 0 100 100" style="enable-background:new 0 0 100 100;" xml:space="preserve">
<style type="text/css">
	.st0{fill:#043B56;}
</style>
<g>
	<path class="st0" d="M48.3,67.2c-8.8-6.2-18.2-6.8-28.4-3.9v-2.5c0-10.7,0-21.4,0-32.1c0-1.7,0.5-2.5,2.2-2.9
		c8.8-2,17.2-1.4,24.9,3.7c0.7,0.5,1.5,1.5,1.5,2.3c0.1,11.4,0.1,22.9,0.1,34.3C48.5,66.2,48.4,66.5,48.3,67.2"/>
	<path class="st0" d="M79.1,63.2c-12.6-2.4-12.6-2.4-27.7,3.8c0-0.8-0.1-1.4-0.1-2.1c0-10.8,0-21.6,0-32.3c0-1.6,0.5-2.4,1.8-3.2
		c7.7-4.6,15.9-5.7,24.5-3.2c0.7,0.2,1.6,1.1,1.6,1.7c0.1,11.6,0.1,23.1,0,34.7C79.3,62.7,79.2,62.9,79.1,63.2"/>
	<path class="st0" d="M50.2,75.3c-10.6-9-22.7-7.7-35-5.1V30.1c0.5-0.1,1.1-0.2,2-0.4v37.3c4.1-0.5,7.9-1.1,11.7-1.5
		c7.3-0.7,13.8,1.3,19.9,5.2c0.6,0.4,1.9,0.6,2.4,0.3c8.8-6.1,18.4-6.7,28.5-4.3c0.6,0.1,1.1,0.2,1.7,0.4c0.1,0,0.3,0,0.7,0V30
		c1.7-0.2,2.9-0.4,2.9,1.8c0,12.4,0,24.7,0,37.1c0,0.4-0.1,0.8-0.2,1.4C72.5,67.5,60.6,66.4,50.2,75.3"/>
</g>
</svg>
