<?xml version="1.0" encoding="utf-8"?>
<!-- Generator: Adobe Illustrator 22.1.0, SVG Export Plug-In . SVG Version: 6.00 Build 0)  -->
<svg version="1.1" id="Capa_1" xmlns="http://www.w3.org/2000/svg" xmlns:xlink="http://www.w3.org/1999/xlink" x="0px" y="0px"
	 viewBox="0 0 100 100" style="enable-background:new 0 0 100 100;" xml:space="preserve">
<style type="text/css">
	.st0{fill:#043B56;}
</style>
<g>
	<path class="st0" d="M87.8,73.7H67.5c-17.6,0-35.2,0-52.8,0c-2.1,0-2.7-0.6-2.6-2.7c0.1-14,0.1-28,0-41.9c0-2.2,0.7-2.8,2.8-2.8
		c23.5,0.1,47,0,70.5,0c1.5,0,2.6,0,2.6,2.1c-0.1,14.5,0,29,0,43.5C88,72.4,87.9,72.9,87.8,73.7 M60.7,42.6
		c-0.1-0.3-0.2-0.5-0.3-0.8c6.6-4.5,13.2-9,19.9-13.5c-0.2-0.3-0.3-0.6-0.5-0.9c-1.4,0.5-2.9,0.7-4.1,1.5c-5.5,3.6-11,7.4-16.5,11.1
		c-0.4,0.3-0.9,0.5-1.7,0.9c0-4,0.1-7.6-0.1-11.2c0-0.6-0.7-1.6-1.2-1.7C55,27.4,55,28.4,55,29.4c0,4.5,0,9,0,13.5
		c0,1.4,0.5,1.8,1.8,1.8c9.4,0,18.8,0,28.2-0.1c0.6,0,1.1-0.7,1.7-1.1c-0.6-0.4-1.2-1.2-1.8-1.2c-3.3-0.1-6.5,0-9.8-0.1
		c-0.5,0-1-0.1-2-0.3c4.1-2.8,7.7-5.3,11.4-7.8c2.5-1.7,2.9-3.1,1.8-6.5c-0.7,0.4-1.4,0.8-2,1.2c-6,4.1-12,8.2-18.1,12.1
		C64.5,41.9,62.4,42.1,60.7,42.6 M20,27.4c-0.1,0.3-0.2,0.6-0.3,0.9c6.6,4.5,13.3,9,20.1,13.7c-2.7,0.5-4.6,0.1-6.5-1.3
		c-5.6-3.9-11.3-7.7-17-11.5c-0.8-0.5-1.7-1-2.6-1.5c-0.9,4.2-0.7,4.7,2.4,6.8c3.5,2.4,7,4.8,10.5,7.3c-3.8,0.5-7.5,0.5-11.2,0.5
		c-0.9,0-2-0.3-2,1.2c0,1.6,1.2,1.2,2.1,1.2c9.2,0,18.3,0,27.5,0.1c1.7,0,2.1-0.6,2.1-2.2c-0.1-3.9,0.1-7.9-0.1-11.8c0-1,1-3-1.2-3
		c-2.2,0-1.2,2-1.2,3.1c-0.1,3.2-0.1,6.5-0.1,10.1c-1-0.6-1.6-0.9-2.1-1.3c-5.5-3.7-11-7.4-16.5-11C22.7,27.9,21.2,27.8,20,27.4
		 M86.2,72.6c1-4.1,0.7-4.7-2.1-6.7c-1.5-1-3-2.1-4.5-3.1c-2.1-1.5-4.2-2.9-6.3-4.4c4-0.5,7.8-0.4,11.6-0.5c0.6,0,1.1-0.7,1.7-1.1
		c-0.6-0.4-1.1-1.1-1.7-1.1c-2.5-0.1-4.9-0.1-7.4-0.1c-6.8,0-13.7,0-20.5,0c-0.9,0-2-0.3-2,1.3c0,4.7,0,9.5,0.1,14.2
		c0,0.4,0.8,0.9,1.3,1.3c0.4-0.5,1-0.9,1.2-1.4c0.2-0.6,0.1-1.3,0.1-2c0-3.1,0-6.2,0-9.7c1.1,0.6,1.7,1,2.4,1.5
		c5.3,3.5,10.5,7.1,15.7,10.6c1.4,0.9,2.7,1.4,4.7,0.5c-6.8-4.6-13.3-9.1-19.9-13.5c0.1-0.3,0.2-0.5,0.4-0.8
		c1.6,0.4,3.4,0.4,4.7,1.2c5.5,3.5,10.8,7.2,16.1,10.8C83,70.7,84.5,71.6,86.2,72.6 M13.8,72.5c0.8-0.5,1.4-0.8,2-1.2
		c6-4,12-8,17.9-12.1c1.8-1.3,3.5-1.4,6.1-1c-7,4.7-13.5,9.2-20,13.6c0.1,0.3,0.2,0.6,0.3,0.8c1.4-0.4,2.9-0.5,4-1.3
		c5.4-3.5,10.6-7.1,16-10.7c0.6-0.4,1.3-0.8,2.3-1.4c0,4.1-0.1,7.7,0.1,11.4c0,0.6,0.9,1.1,1.4,1.7c0.4-0.6,1-1.1,1.1-1.7
		c0.1-4.4,0-8.7,0.1-13.1c0-1.5-0.5-2-2-2c-5.3,0.1-10.6,0-15.9,0c-4,0-8,0-12,0c-1.3,0-2.1,0.4-1.5,1.8c0.2,0.4,1.1,0.6,1.6,0.6
		c3.7,0.1,7.5,0,11.8,0c-0.7,0.6-1,0.9-1.3,1.2c-3.3,2.3-6.6,4.6-9.9,6.8C13.1,67.8,12.7,68.8,13.8,72.5"/>
</g>
</svg>
