<?xml version="1.0" encoding="utf-8"?>
<!-- Generator: Adobe Illustrator 22.1.0, SVG Export Plug-In . SVG Version: 6.00 Build 0)  -->
<svg version="1.1" id="Capa_1" xmlns="http://www.w3.org/2000/svg" xmlns:xlink="http://www.w3.org/1999/xlink" x="0px" y="0px"
	 viewBox="0 0 100 100" style="enable-background:new 0 0 100 100;" xml:space="preserve">
<style type="text/css">
	.st0{fill:#043B56;}
</style>
<g>
	<path class="st0" d="M5,77.5c0.5-0.5,0.8-0.9,1.2-1.3c4.2-4.2,6.6-9.2,7.4-15c0.1-0.5,0-0.8-0.5-1.2c-2.8-1.9-2.8-5.7-0.1-7.6
		c0.3-0.2,0.6-0.5,0.6-0.8c0.4-4.2,1.2-8.3,4-11.8c-1.9-0.7-3.8-1.3-5.6-1.9c-1.2-0.4-2.4-0.8-3.7-1.2c-0.9-0.3-1.6-0.7-1.6-1.8
		c0-0.9,0.5-1.5,1.6-1.9c10.2-3.4,20.5-6.9,30.7-10.3c3.5-1.2,7-2.3,10.5-3.6c0.9-0.3,1.7-0.3,2.5,0c13.6,4.6,27.3,9.2,40.9,13.7
		c0.2,0.1,0.4,0.1,0.6,0.2c0.8,0.3,1.4,0.8,1.4,1.7c0,0.9-0.5,1.5-1.4,1.8c-2.9,1-5.9,2-8.8,3c-10.8,3.6-21.7,7.3-32.5,10.9
		c-0.9,0.3-1.8,0.4-2.8,0c-7.2-2.4-14.3-4.8-21.5-7.2c-0.1,0-0.3-0.1-0.5-0.2c0.3-0.2,0.6-0.3,0.8-0.4c7.6-2.9,15.2-5.9,22.8-8.8
		c0.9-0.4,1.7-0.9,1.8-2c0.1-0.9-0.3-1.8-1.1-2.1c-0.7-0.2-1.6-0.2-2.2,0c-5,1.8-10,3.7-14.9,5.6c-3.1,1.2-6.1,2.6-9.2,3.8
		c-4.4,1.8-6.6,5.2-7.2,9.8c0,0.3-0.1,0.7-0.2,1c-0.3,1.2-0.2,2.2,0.9,3.2c1.7,1.7,1.5,4.4-0.2,6.2c-0.3,0.3-0.4,0.8-0.4,1.1
		c0.2,3.4,0.6,6.9,0.6,10.3c0,3.7-1.5,6.9-4.6,9.2c-1.2,0.9-2.5,1.2-3.9,0.5C9,79.8,7.5,79.1,6,78.3C5.7,78.1,5.4,77.9,5,77.5"/>
	<path class="st0" d="M24.1,62.7c2.2-2.5,2.5-5.2,1.2-8c-0.4-1-1.3-1.7-2-2.6c-0.2-0.2-0.5-0.4-0.5-0.7c0-1.6,0-3.2,0.7-4.8
		c2.6,0.9,5.2,1.7,7.8,2.6c5.8,2,11.6,3.9,17.4,5.9c1.4,0.5,2.8,0.5,4.3,0c8.3-2.8,16.6-5.6,24.9-8.4c0.4-0.1,0.7-0.2,1.2-0.4v1.2
		c0,3.3-0.1,6.6,0,9.8c0.2,3.3-1.4,5.4-3.9,7.1c-2.9,1.9-6.1,3.1-9.4,3.9c-10.5,2.5-21,2.4-31.4-0.4c-3.3-0.9-6.5-2.1-9.2-4.4
		C24.9,63.4,24.6,63.1,24.1,62.7"/>
</g>
</svg>
