<?xml version="1.0" encoding="utf-8"?>
<!-- Generator: Adobe Illustrator 22.1.0, SVG Export Plug-In . SVG Version: 6.00 Build 0)  -->
<svg version="1.1" id="Capa_1" xmlns="http://www.w3.org/2000/svg" xmlns:xlink="http://www.w3.org/1999/xlink" x="0px" y="0px"
	 viewBox="0 0 100 100" style="enable-background:new 0 0 100 100;" xml:space="preserve">
<style type="text/css">
	.st0{fill:#043B56;}
</style>
<g>
	<path class="st0" d="M78.9,67.2c0,4.3-0.1,8.6,0,12.9c0,1.7-0.6,2.3-2.3,2.3c-5.8-0.1-11.5-0.1-17.2,0c-1.7,0-2.1-0.6-2.1-2.2
		c0.1-5.6,0-11.2,0.1-16.8c0-1.8-0.6-2.7-2.5-2.6c-3.3,0.1-6.5,0.1-9.8,0c-1.7,0-2.3,0.7-2.3,2.4c0.1,5.6,0,11.2,0.1,16.8
		c0,1.8-0.4,2.5-2.3,2.5c-5.7-0.1-11.4-0.1-17,0c-1.7,0-2.3-0.5-2.3-2.3c0.1-8.5,0-17,0.1-25.6c0-1.1,0.7-2.5,1.5-3.2
		c8.5-6.7,17.2-13.4,25.7-20c1.1-0.9,2-0.9,3.1,0c8.6,6.7,17.3,13.4,25.9,20.2c0.8,0.6,1.3,2.1,1.4,3.2C79,58.9,78.9,63.1,78.9,67.2
		"/>
	<path class="st0" d="M64.3,27.4c0.1-0.6,0.2-0.9,0.2-1.2c-0.1-4.6,0.1-3.9,4.2-3.9c5.4,0,5.8,0,5.3,5.3c-0.5,5.5,1,9.4,5.9,12.1
		c2.3,1.3,4.3,3.3,6.4,4.9c2.3,1.8,2.9,3.8,1.5,5.7c-1.4,1.8-3.5,1.9-5.8,0c-9.5-7.4-19-14.8-28.6-22.2c-3.3-2.5-3.4-2.6-6.6-0.1
		C37.2,35.6,27.6,43,18.1,50.5c-2,1.6-3.8,1.7-5.3,0.5c-1.9-1.6-1.7-4.1,0.7-6c8.2-6.4,16.4-12.7,24.6-19.1c3-2.3,6-4.7,9-7
		c2.2-1.7,3.7-1.7,5.8,0c3.2,2.5,6.4,5,9.7,7.5C63.1,26.7,63.6,27,64.3,27.4"/>
</g>
</svg>
