<?xml version="1.0" encoding="utf-8"?>
<!-- Generator: Adobe Illustrator 22.1.0, SVG Export Plug-In . SVG Version: 6.00 Build 0)  -->
<svg version="1.1" id="Capa_1" xmlns="http://www.w3.org/2000/svg" xmlns:xlink="http://www.w3.org/1999/xlink" x="0px" y="0px"
	 viewBox="0 0 100 100" style="enable-background:new 0 0 100 100;" xml:space="preserve">
<style type="text/css">
	.st0{fill:#043B56;}
</style>
<g>
	<path class="st0" d="M36.2,63.9c-1.4-0.1-2.5-0.2-3.9-0.3c1-4.1-1.9-6.6-3.2-9.8c-0.2,0-0.4,0.1-0.6,0.1v4c0,5.2,0,10.4,0,15.6
		c0,1.4,0,2.9-1.9,2.8c-1.9,0-1.8-1.6-1.8-2.9c0-2.6,0-5.3,0-7.9c0-0.7-0.1-1.3-0.2-2c-0.2,0-0.5,0-0.7,0c0,2.3,0,4.5,0,6.8
		c0,1.1,0,2.2,0,3.3c0,1.4-0.3,2.6-1.9,2.7c-1.7,0.1-1.9-1.3-1.9-2.6c0-5.8,0-11.6,0-17.4V54c-0.2,0-0.4-0.1-0.5-0.1
		c-1,1.9-2,3.8-3,5.7c-0.6,1.2-1.3,2.1-2.7,1.4c-1.3-0.7-0.9-1.8-0.4-2.8c1.2-2.4,2.4-4.9,3.6-7.3c1.1-2.2,2.8-3.4,5.3-3.1
		c0.9,0.1,1.8,0.1,2.6,0c3.8-0.6,6.1,1.2,7.4,4.7c0.2,0.7,0.7,1.3,1.4,2.5c0.8-3.7,1.4-6.7,2-9.8c-0.1-0.1-0.2-0.1-0.3-0.1
		c-1,1.8-2,3.6-2.9,5.3c-1-1.3-2-2.6-3.4-4.4c0.9-1.6,2.1-4.3,3.8-6.8c0.8-1.2,2.3-2.4,3.6-2.5c3.6-0.3,7.2-0.1,10.7-0.1
		c0.5,0,1.1,0.4,1.8,0.6c-0.7,1.3-1.3,2.4-2,3.6c0.1,0.2,0.2,0.3,0.4,0.5c3.9-7.3,10.5-4.7,16.2-4.6c2.8,0,5,3.7,7.4,10.1
		c-1.2,1.5-2.2,2.7-3.3,4.1c-1.1-2-2.1-4-3.2-6.1c-0.1,0-0.3,0-0.4,0.1c0,0.8-0.1,1.5-0.1,2.3c0,8.6,0,17.2-0.1,25.7
		c0,1.1-0.5,2.5-1.3,3.2c-1.6,1.3-3.8-0.1-3.8-2.4c-0.1-4.2,0-8.5,0-12.8c0-0.8-0.1-1.5-0.2-2.3c-0.2,0-0.5,0-0.7-0.1
		c-0.1,0.7-0.4,1.3-0.4,2c0,4.1,0,8.2,0,12.3c0,2.4-0.9,3.6-2.6,3.6c-1.7,0-2.7-1.2-2.7-3.5c0-3,0-6,0-9H48c0,3,0,5.9,0,8.8
		c0,0.8,0,1.8-0.4,2.3c-0.7,0.7-2,1.4-2.7,1.2c-0.9-0.2-1.9-1.5-2-2.4c-0.3-2.6-0.1-5.3-0.1-7.9c0-0.7-0.2-1.4-0.3-2.1
		c-0.3,0-0.5,0-0.8,0c-0.1,0.6-0.2,1.3-0.2,1.9c0,2.5,0,5,0,7.5c0,1.8-0.7,3-2.6,3.2c-1.7,0.1-2.7-1.1-2.7-3.2
		C36.1,70.1,36.2,67,36.2,63.9 M51.7,62.3c0.1,0,0.2,0,0.3-0.1V44.9c-1.3,1.7-2.8,3.5-2.7,5.2C49.7,54.2,50.8,58.2,51.7,62.3"/>
	<path class="st0" d="M71.9,67.6c-1.1-0.1-1.8-0.2-2.8-0.3c0.8-4.1,1.6-8.2,2.3-12.2c-0.1,0-0.3-0.1-0.4-0.1
		c-0.9,1.8-1.9,3.6-2.8,5.4c-0.6,1.2-1.5,1.9-2.6,1.1c-0.5-0.4-0.7-1.8-0.5-2.5c1.2-2.8,2.6-5.4,3.9-8.1c0.9-1.8,2.4-2.6,4.4-2.7
		c0.1,0,0.1,0,0.2,0c7.7-0.3,8-0.1,11.3,6.9c0.6,1.3,1.4,2.6,1.8,4c0.2,0.7-0.3,1.7-0.4,2.5c-0.8-0.3-2-0.4-2.5-1
		c-1.2-1.7-2-3.6-3.4-5.3c0.8,4,1.6,8,2.4,12.2c-3-0.4-3,1.4-2.9,3.4c0.1,1.2,0.2,2.5-0.1,3.7c-0.2,0.8-1.2,1.4-1.8,2.1
		c-0.6-0.7-1.7-1.3-1.8-2.1c-0.2-2.2-0.1-4.4-0.1-6.5c-0.2,0-0.4,0-0.6-0.1c-0.1,0.8-0.2,1.6-0.2,2.5c0,1.4,0.2,2.8-0.1,4.2
		c-0.2,0.8-1.2,1.3-1.8,2c-0.6-0.7-1.6-1.3-1.7-2.1C71.8,72.1,71.9,69.9,71.9,67.6"/>
	<path class="st0" d="M58.1,35.2c-3.3,0-5.9-2.6-5.9-5.8c0-3.2,2.6-5.9,5.8-5.9c3.3-0.1,6,2.6,6,5.9C64,32.7,61.4,35.3,58.1,35.2"/>
	<path class="st0" d="M42,23.5c3.2,0,5.9,2.6,5.9,5.8c0,3.3-2.7,6-6,5.9c-3.3-0.1-5.8-2.6-5.8-5.9C36.2,26.1,38.8,23.5,42,23.5"/>
	<path class="st0" d="M24.5,38.7c2.3,0.1,4,2,3.9,4.4c-0.1,2.3-1.9,3.9-4.2,3.8c-2.4-0.1-4.1-1.9-4-4.3
		C20.3,40.3,22.1,38.6,24.5,38.7"/>
	<path class="st0" d="M80.2,43.2c0,2.3-1.8,4.2-4.1,4.2c-2.3,0-4.1-1.9-4.1-4.2c0-2.3,1.8-4,4-4C78.3,39.1,80.1,40.9,80.2,43.2"/>
</g>
</svg>
